<svg width="32" height="32" viewBox="0 0 32 32" fill="none" xmlns="http://www.w3.org/2000/svg">
<path d="M24 10.6667H22.6667V9.33333C22.6667 7.56522 21.9643 5.86953 20.714 4.61929C19.4638 3.36905 17.7681 2.66667 16 2.66667C14.2319 2.66667 12.5362 3.36905 11.286 4.61929C10.0357 5.86953 9.33333 7.56522 9.33333 9.33333V10.6667H8C7.29276 10.6667 6.61448 10.9476 6.11438 11.4477C5.61429 11.9478 5.33333 12.6261 5.33333 13.3333V26.6667C5.33333 27.3739 5.61429 28.0522 6.11438 28.5523C6.61448 29.0524 7.29276 29.3333 8 29.3333H24C24.7072 29.3333 25.3855 29.0524 25.8856 28.5523C26.3857 28.0522 26.6667 27.3739 26.6667 26.6667V13.3333C26.6667 12.6261 26.3857 11.9478 25.8856 11.4477C25.3855 10.9476 24.7072 10.6667 24 10.6667ZM20 10.6667H12V9.33333C12 8.27247 12.4214 7.25505 13.1716 6.50491C13.9217 5.75476 14.9391 5.33333 16 5.33333C17.0609 5.33333 18.0783 5.75476 18.8284 6.50491C19.5786 7.25505 20 8.27247 20 9.33333V10.6667Z" fill="#BBD7FD"/>
<path d="M19.3333 19.3333C19.3347 19.982 19.146 20.6169 18.7906 21.1595C18.4351 21.7021 17.9285 22.1288 17.3333 22.3867V22.6667C17.3333 23.0203 17.1929 23.3594 16.9428 23.6095C16.6928 23.8595 16.3536 24 16 24C15.6464 24 15.3072 23.8595 15.0572 23.6095C14.8071 23.3594 14.6667 23.0203 14.6667 22.6667V22.3867C14.1158 22.1463 13.6402 21.7614 13.2902 21.2728C12.9402 20.7841 12.7288 20.21 12.6784 19.6111C12.628 19.0121 12.7405 18.4107 13.004 17.8705C13.2674 17.3303 13.672 16.8714 14.175 16.5423C14.6779 16.2132 15.2605 16.0262 15.861 16.0012C16.4615 15.9761 17.0576 16.1139 17.5863 16.3999C18.1149 16.6859 18.5563 17.1096 18.8639 17.626C19.1714 18.1424 19.3336 18.7323 19.3333 19.3333Z" fill="#2A7DF4"/>
</svg>
