<svg width="32" height="32" viewBox="0 0 32 32" fill="none" xmlns="http://www.w3.org/2000/svg">
<path fill-rule="evenodd" clip-rule="evenodd" d="M27.4545 8.90933C27.7558 9.2106 27.7558 9.699 27.4545 10.0003C27.1533 10.3015 26.6649 10.3015 26.3636 10.0003L25.8178 9.45446L23.0909 12.1814L25.2727 14.3633C25.574 14.6645 25.574 15.1529 25.2727 15.4542C24.9715 15.7555 24.4831 15.7555 24.1818 15.4542L23.0912 14.3635L13.8182 23.6367C12.6999 24.755 11.0656 25.0431 9.68164 24.5007L8.90924 25.2731C8.50531 25.6771 7.93318 25.8102 7.41838 25.6725L5.63631 27.4547C5.33511 27.7559 4.84671 27.7559 4.54544 27.4547C4.24418 27.1534 4.24418 26.665 4.54544 26.3637L6.32778 24.5813C6.19051 24.0667 6.32371 23.495 6.72738 23.0913L7.49971 22.3189C6.95731 20.9348 7.24531 19.3004 8.36365 18.182L17.6366 8.9088L16.5455 7.81766C16.2442 7.5164 16.2442 7.028 16.5455 6.72673C16.8467 6.42549 17.3352 6.42549 17.6364 6.72673L19.8182 8.9086L22.5451 6.18165L22 5.63653C21.6988 5.33528 21.6988 4.84685 22 4.5456C22.3012 4.24434 22.7896 4.24434 23.0909 4.5456L27.4545 8.90933ZM20.761 9.85146L23.4879 7.12446L24.875 8.5116L22.1481 11.2386L20.761 9.85146ZM18.5794 9.85166L22.1484 13.4207L19.211 16.3581L15.6421 12.789L18.5794 9.85166ZM18.1202 17.449L16.4838 19.0854C15.5414 20.0277 16.2358 19.3334 15.3928 20.1763L14.3022 21.267C13.5691 22.0001 13.7364 21.8328 13.2113 22.3579L12.8754 22.6939C12.1433 23.4259 11.0734 23.6142 10.1675 23.2587L8.74165 21.8328C8.38611 20.9269 8.57438 19.8569 9.30645 19.1249L14.5512 13.8799L18.1202 17.449ZM7.65171 24.0553C7.65731 24.0479 7.66351 24.0408 7.67018 24.0341L8.21958 23.4847C8.26598 23.5363 8.31398 23.587 8.36365 23.6367C8.41338 23.6864 8.46411 23.7345 8.51585 23.7809L7.96645 24.3303C7.95965 24.3371 7.95251 24.3433 7.94511 24.3489C7.91145 24.2891 7.86911 24.2328 7.81818 24.1819C7.76738 24.1311 7.71131 24.0889 7.65171 24.0553Z" fill="#2A7DF4"/>
<path d="M25.8179 8.51147L26.2893 8.98287L26.8351 9.52873C26.876 9.5696 26.9423 9.5696 26.9832 9.52873C27.0241 9.4878 27.0241 9.42147 26.9832 9.38053L22.6196 5.01684L23.091 4.54544L22.6196 5.01683C22.5787 4.97594 22.5124 4.97594 22.4715 5.01684C22.4306 5.05774 22.4306 5.12407 22.4715 5.16497L23.0166 5.71009L23.488 6.18149L23.9594 6.65291L25.3465 8.04007L25.8179 8.51147ZM22.6196 12.6527L22.1482 12.1813L21.6768 11.7098L20.2896 10.3227L19.8183 9.85127L19.3469 9.37987L17.165 7.198C17.1242 7.15707 17.0578 7.15707 17.017 7.198C16.976 7.23887 16.976 7.3052 17.017 7.34613L18.1081 8.43727L18.5795 8.90867L19.0509 9.38007L22.6198 12.9491L23.0912 13.4205L23.5626 13.8919L24.6533 14.9827C24.6942 15.0235 24.7605 15.0235 24.8014 14.9827C24.8423 14.9417 24.8423 14.8754 24.8014 14.8345L22.6196 12.6527ZM17.4266 19.0854L19.1699 17.3421L19.0788 17.2511L19.6836 16.7885C19.7738 16.7194 19.8614 16.6447 19.9459 16.5645C19.8057 16.6977 19.656 16.816 19.4988 16.9193L19.0452 17.2174L18.6614 16.8335L15.1666 13.3386L14.7827 12.9548L15.0808 12.5011C15.183 12.3455 15.3001 12.1972 15.4317 12.0582C15.3529 12.1414 15.2796 12.2276 15.2116 12.3164L14.749 12.9211L14.6582 12.8303L8.83516 18.6533C7.91082 19.5777 7.67129 20.9293 8.12049 22.0755L8.27969 22.4817L7.97122 22.7901L7.19889 23.5625C6.97022 23.7912 6.89349 24.1152 6.97196 24.4093L7.07102 24.7807L6.79922 25.0526L5.01689 26.835C4.97595 26.8759 4.97595 26.9422 5.01689 26.9831C5.05775 27.024 5.12409 27.024 5.16495 26.9831L6.94702 25.201L7.21902 24.929L7.59062 25.0283C7.88489 25.1071 8.20909 25.0304 8.43782 24.8016L9.21022 24.0292L9.51869 23.7207L9.92489 23.8799C11.0146 24.3069 12.2899 24.1115 13.2072 23.2969L11.5007 21.5903C10.9392 21.0287 10.9392 20.1182 11.5007 19.5566L11.9721 20.028L11.5007 19.5566C12.0623 18.995 12.9728 18.995 13.5344 19.5566L15.2449 21.2671L15.3929 21.1191L13.6824 19.4085C13.1208 18.8469 13.1208 17.9364 13.6824 17.3748C14.244 16.8132 15.1545 16.8132 15.7161 17.3748L17.4266 19.0854Z" fill="#2A7DF4" stroke="#2A7DF4" stroke-width="2"/>
</svg>
